<mxfile host="" modified="2020-05-24T15:21:41.060Z" agent="5.0 (X11; Linux x86_64) AppleWebKit/537.36 (KHTML, like Gecko) Code/1.45.0 Chrome/78.0.3904.130 Electron/7.2.4 Safari/537.36" version="13.1.3" etag="lrwgP8mNOWNbAz78NI_h" pages="2">
            <diagram id="diagramid" name="Diagram">
              <mxGraphModel><root><mxCell id="0"/><mxCell id="1" parent="0"/><mxCell id="2" value="MonitoringIAMRole" style="outlineConnect=0;fontColor=#B3B3B3;gradientColor=#F54749;gradientDirection=north;fillColor=#C7131F;strokeColor=#ffffff;dashed=0;verticalLabelPosition=bottom;verticalAlign=top;align=center;html=1;fontSize=12;fontStyle=0;aspect=fixed;shape=mxgraph.aws4.resourceIcon;resIcon=mxgraph.aws4.role;" vertex="1" parent="1"><mxGeometry x="500" y="650" width="50" height="50" as="geometry"/></mxCell><mxCell id="3" value="DBBootStrapLambdaRole" style="outlineConnect=0;fontColor=#B3B3B3;gradientColor=#F54749;gradientDirection=north;fillColor=#C7131F;strokeColor=#ffffff;dashed=0;verticalLabelPosition=bottom;verticalAlign=top;align=center;html=1;fontSize=12;fontStyle=0;aspect=fixed;shape=mxgraph.aws4.resourceIcon;resIcon=mxgraph.aws4.role;" vertex="1" parent="1"><mxGeometry x="500" y="1000" width="50" height="50" as="geometry"/></mxCell><mxCell id="4" value="DBSNSTopic" style="outlineConnect=0;fontColor=#B3B3B3;gradientColor=#F34482;gradientDirection=north;fillColor=#BC1356;strokeColor=#ffffff;dashed=0;verticalLabelPosition=bottom;verticalAlign=top;align=center;html=1;fontSize=12;fontStyle=0;aspect=fixed;shape=mxgraph.aws4.resourceIcon;resIcon=mxgraph.aws4.sns;" vertex="1" parent="1"><mxGeometry x="250" y="575" width="50" height="50" as="geometry"/></mxCell><mxCell id="5" value="DBSubnetGroup" style="outlineConnect=0;fontColor=#B3B3B3;gradientColor=#4D72F3;gradientDirection=north;fillColor=#3334B9;strokeColor=#ffffff;dashed=0;verticalLabelPosition=bottom;verticalAlign=top;align=center;html=1;fontSize=12;fontStyle=0;aspect=fixed;shape=mxgraph.aws4.resourceIcon;resIcon=mxgraph.aws4.rds;" vertex="1" parent="1"><mxGeometry x="750" y="700" width="50" height="50" as="geometry"/></mxCell><mxCell id="6" value="ClusterSecurityGroup" style="outlineConnect=0;fontColor=#B3B3B3;gradientColor=#F78E04;gradientDirection=north;fillColor=#D05C17;strokeColor=#ffffff;dashed=0;verticalLabelPosition=bottom;verticalAlign=top;align=center;html=1;fontSize=12;fontStyle=0;aspect=fixed;shape=mxgraph.aws4.resourceIcon;resIcon=mxgraph.aws4.ec2;" vertex="1" parent="1"><mxGeometry x="750" y="300" width="50" height="50" as="geometry"/></mxCell><mxCell id="7" value="ClusterSecurityGroupIngress" style="outlineConnect=0;fontColor=#B3B3B3;gradientColor=#F78E04;gradientDirection=north;fillColor=#D05C17;strokeColor=#ffffff;dashed=0;verticalLabelPosition=bottom;verticalAlign=top;align=center;html=1;fontSize=12;fontStyle=0;aspect=fixed;shape=mxgraph.aws4.resourceIcon;resIcon=mxgraph.aws4.ec2;" vertex="1" parent="1"><mxGeometry x="500" y="200" width="50" height="50" as="geometry"/></mxCell><mxCell id="8" value="RDSDBClusterParameterGroup" style="outlineConnect=0;fontColor=#B3B3B3;gradientColor=#4D72F3;gradientDirection=north;fillColor=#3334B9;strokeColor=#ffffff;dashed=0;verticalLabelPosition=bottom;verticalAlign=top;align=center;html=1;fontSize=12;fontStyle=0;aspect=fixed;shape=mxgraph.aws4.resourceIcon;resIcon=mxgraph.aws4.rds;" vertex="1" parent="1"><mxGeometry x="750" y="600" width="50" height="50" as="geometry"/></mxCell><mxCell id="9" value="DBParamGroup" style="outlineConnect=0;fontColor=#B3B3B3;gradientColor=#4D72F3;gradientDirection=north;fillColor=#3334B9;strokeColor=#ffffff;dashed=0;verticalLabelPosition=bottom;verticalAlign=top;align=center;html=1;fontSize=12;fontStyle=0;aspect=fixed;shape=mxgraph.aws4.resourceIcon;resIcon=mxgraph.aws4.rds;" vertex="1" parent="1"><mxGeometry x="500" y="850" width="50" height="50" as="geometry"/></mxCell><mxCell id="10" value="AuroraKMSCMK" style="outlineConnect=0;fontColor=#B3B3B3;gradientColor=#F54749;gradientDirection=north;fillColor=#C7131F;strokeColor=#ffffff;dashed=0;verticalLabelPosition=bottom;verticalAlign=top;align=center;html=1;fontSize=12;fontStyle=0;aspect=fixed;shape=mxgraph.aws4.resourceIcon;resIcon=mxgraph.aws4.key_management_service;" vertex="1" parent="1"><mxGeometry x="750" y="500" width="50" height="50" as="geometry"/></mxCell><mxCell id="11" value="AuroraKMSCMKAlias" style="outlineConnect=0;fontColor=#B3B3B3;gradientColor=#F54749;gradientDirection=north;fillColor=#C7131F;strokeColor=#ffffff;dashed=0;verticalLabelPosition=bottom;verticalAlign=top;align=center;html=1;fontSize=12;fontStyle=0;aspect=fixed;shape=mxgraph.aws4.resourceIcon;resIcon=mxgraph.aws4.key_management_service;" vertex="1" parent="1"><mxGeometry x="250" y="375" width="50" height="50" as="geometry"/></mxCell><mxCell id="12" value="AuroraMasterSecret" style="outlineConnect=0;fontColor=#B3B3B3;gradientColor=#F54749;gradientDirection=north;fillColor=#C7131F;strokeColor=#ffffff;dashed=0;verticalLabelPosition=bottom;verticalAlign=top;align=center;html=1;fontSize=12;fontStyle=0;aspect=fixed;shape=mxgraph.aws4.resourceIcon;resIcon=mxgraph.aws4.secretsmanager;" vertex="1" parent="1"><mxGeometry x="750" y="400" width="50" height="50" as="geometry"/></mxCell><mxCell id="13" value="SecretAuroraClusterAttachment" style="outlineConnect=0;fontColor=#B3B3B3;gradientColor=#F54749;gradientDirection=north;fillColor=#C7131F;strokeColor=#ffffff;dashed=0;verticalLabelPosition=bottom;verticalAlign=top;align=center;html=1;fontSize=12;fontStyle=0;aspect=fixed;shape=mxgraph.aws4.resourceIcon;resIcon=mxgraph.aws4.secretsmanager;" vertex="1" parent="1"><mxGeometry x="250" y="275" width="50" height="50" as="geometry"/></mxCell><mxCell id="14" value="AuroraSecretResourcePolicy" style="outlineConnect=0;fontColor=#B3B3B3;gradientColor=#F54749;gradientDirection=north;fillColor=#C7131F;strokeColor=#ffffff;dashed=0;verticalLabelPosition=bottom;verticalAlign=top;align=center;html=1;fontSize=12;fontStyle=0;aspect=fixed;shape=mxgraph.aws4.resourceIcon;resIcon=mxgraph.aws4.secretsmanager;" vertex="1" parent="1"><mxGeometry x="500" y="100" width="50" height="50" as="geometry"/></mxCell><mxCell id="15" value="CreateSecretRotationLambdaRole" style="outlineConnect=0;fontColor=#B3B3B3;gradientColor=#F54749;gradientDirection=north;fillColor=#C7131F;strokeColor=#ffffff;dashed=0;verticalLabelPosition=bottom;verticalAlign=top;align=center;html=1;fontSize=12;fontStyle=0;aspect=fixed;shape=mxgraph.aws4.resourceIcon;resIcon=mxgraph.aws4.role;" vertex="1" parent="1"><mxGeometry x="750" y="150" width="50" height="50" as="geometry"/></mxCell><mxCell id="16" value="CreateSecretRotationLambdaFn" style="outlineConnect=0;fontColor=#B3B3B3;gradientColor=#F78E04;gradientDirection=north;fillColor=#D05C17;strokeColor=#ffffff;dashed=0;verticalLabelPosition=bottom;verticalAlign=top;align=center;html=1;fontSize=12;fontStyle=0;aspect=fixed;shape=mxgraph.aws4.resourceIcon;resIcon=mxgraph.aws4.lambda;" vertex="1" parent="1"><mxGeometry x="500" width="50" height="50" as="geometry"/></mxCell><mxCell id="17" value="CreateSecretRotationLambdaFnTrigger" style="outlineConnect=0;fontColor=#B3B3B3;gradientColor=#aaaaaa;gradientDirection=north;fillColor=#aaaaaa;strokeColor=#ffffff;dashed=0;verticalLabelPosition=bottom;verticalAlign=top;align=center;html=1;fontSize=12;fontStyle=0;aspect=fixed;shape=mxgraph.aws4.resourceIcon;resIcon=mxgraph.aws4.lambdaapgsecretsmanager;" vertex="1" parent="1"><mxGeometry x="250" width="50" height="50" as="geometry"/></mxCell><mxCell id="18" value="AuroraSecretRotationSchedule" style="outlineConnect=0;fontColor=#B3B3B3;gradientColor=#F54749;gradientDirection=north;fillColor=#C7131F;strokeColor=#ffffff;dashed=0;verticalLabelPosition=bottom;verticalAlign=top;align=center;html=1;fontSize=12;fontStyle=0;aspect=fixed;shape=mxgraph.aws4.resourceIcon;resIcon=mxgraph.aws4.secretsmanager;" vertex="1" parent="1"><mxGeometry width="50" height="50" as="geometry"/></mxCell><mxCell id="19" value="AuroraDBCluster" style="outlineConnect=0;fontColor=#B3B3B3;gradientColor=#4D72F3;gradientDirection=north;fillColor=#3334B9;strokeColor=#ffffff;dashed=0;verticalLabelPosition=bottom;verticalAlign=top;align=center;html=1;fontSize=12;fontStyle=0;aspect=fixed;shape=mxgraph.aws4.resourceIcon;resIcon=mxgraph.aws4.rds;" vertex="1" parent="1"><mxGeometry x="500" y="500" width="50" height="50" as="geometry"/></mxCell><mxCell id="20" value="AuroraDBFirstInstance" style="outlineConnect=0;fontColor=#B3B3B3;gradientColor=#4D72F3;gradientDirection=north;fillColor=#3334B9;strokeColor=#ffffff;dashed=0;verticalLabelPosition=bottom;verticalAlign=top;align=center;html=1;fontSize=12;fontStyle=0;aspect=fixed;shape=mxgraph.aws4.resourceIcon;resIcon=mxgraph.aws4.rds;" vertex="1" parent="1"><mxGeometry x="250" y="475" width="50" height="50" as="geometry"/></mxCell><mxCell id="21" value="AuroraDBSecondInstance" style="outlineConnect=0;fontColor=#B3B3B3;gradientColor=#4D72F3;gradientDirection=north;fillColor=#3334B9;strokeColor=#ffffff;dashed=0;verticalLabelPosition=bottom;verticalAlign=top;align=center;html=1;fontSize=12;fontStyle=0;aspect=fixed;shape=mxgraph.aws4.resourceIcon;resIcon=mxgraph.aws4.rds;" vertex="1" parent="1"><mxGeometry x="250" y="725" width="50" height="50" as="geometry"/></mxCell><mxCell id="22" value="CPUUtilizationAlarm1" style="outlineConnect=0;fontColor=#B3B3B3;gradientColor=#F34482;gradientDirection=north;fillColor=#BC1356;strokeColor=#ffffff;dashed=0;verticalLabelPosition=bottom;verticalAlign=top;align=center;html=1;fontSize=12;fontStyle=0;aspect=fixed;shape=mxgraph.aws4.resourceIcon;resIcon=mxgraph.aws4.cloudwatch;" vertex="1" parent="1"><mxGeometry y="300" width="50" height="50" as="geometry"/></mxCell><mxCell id="23" value="CPUUtilizationAlarm2" style="outlineConnect=0;fontColor=#B3B3B3;gradientColor=#F34482;gradientDirection=north;fillColor=#BC1356;strokeColor=#ffffff;dashed=0;verticalLabelPosition=bottom;verticalAlign=top;align=center;html=1;fontSize=12;fontStyle=0;aspect=fixed;shape=mxgraph.aws4.resourceIcon;resIcon=mxgraph.aws4.cloudwatch;" vertex="1" parent="1"><mxGeometry y="800" width="50" height="50" as="geometry"/></mxCell><mxCell id="24" value="MaxUsedTxIDsAlarm1" style="outlineConnect=0;fontColor=#B3B3B3;gradientColor=#F34482;gradientDirection=north;fillColor=#BC1356;strokeColor=#ffffff;dashed=0;verticalLabelPosition=bottom;verticalAlign=top;align=center;html=1;fontSize=12;fontStyle=0;aspect=fixed;shape=mxgraph.aws4.resourceIcon;resIcon=mxgraph.aws4.cloudwatch;" vertex="1" parent="1"><mxGeometry y="100" width="50" height="50" as="geometry"/></mxCell><mxCell id="25" value="MaxUsedTxIDsAlarm2" style="outlineConnect=0;fontColor=#B3B3B3;gradientColor=#F34482;gradientDirection=north;fillColor=#BC1356;strokeColor=#ffffff;dashed=0;verticalLabelPosition=bottom;verticalAlign=top;align=center;html=1;fontSize=12;fontStyle=0;aspect=fixed;shape=mxgraph.aws4.resourceIcon;resIcon=mxgraph.aws4.cloudwatch;" vertex="1" parent="1"><mxGeometry y="600" width="50" height="50" as="geometry"/></mxCell><mxCell id="26" value="FreeLocalStorageAlarm1" style="outlineConnect=0;fontColor=#B3B3B3;gradientColor=#F34482;gradientDirection=north;fillColor=#BC1356;strokeColor=#ffffff;dashed=0;verticalLabelPosition=bottom;verticalAlign=top;align=center;html=1;fontSize=12;fontStyle=0;aspect=fixed;shape=mxgraph.aws4.resourceIcon;resIcon=mxgraph.aws4.cloudwatch;" vertex="1" parent="1"><mxGeometry y="200" width="50" height="50" as="geometry"/></mxCell><mxCell id="27" value="FreeLocalStorageAlarm2" style="outlineConnect=0;fontColor=#B3B3B3;gradientColor=#F34482;gradientDirection=north;fillColor=#BC1356;strokeColor=#ffffff;dashed=0;verticalLabelPosition=bottom;verticalAlign=top;align=center;html=1;fontSize=12;fontStyle=0;aspect=fixed;shape=mxgraph.aws4.resourceIcon;resIcon=mxgraph.aws4.cloudwatch;" vertex="1" parent="1"><mxGeometry y="700" width="50" height="50" as="geometry"/></mxCell><mxCell id="28" value="DatabaseClusterEventSubscription" style="outlineConnect=0;fontColor=#B3B3B3;gradientColor=#4D72F3;gradientDirection=north;fillColor=#3334B9;strokeColor=#ffffff;dashed=0;verticalLabelPosition=bottom;verticalAlign=top;align=center;html=1;fontSize=12;fontStyle=0;aspect=fixed;shape=mxgraph.aws4.resourceIcon;resIcon=mxgraph.aws4.rds;" vertex="1" parent="1"><mxGeometry y="500" width="50" height="50" as="geometry"/></mxCell><mxCell id="29" value="DatabaseInstanceEventSubscription" style="outlineConnect=0;fontColor=#B3B3B3;gradientColor=#4D72F3;gradientDirection=north;fillColor=#3334B9;strokeColor=#ffffff;dashed=0;verticalLabelPosition=bottom;verticalAlign=top;align=center;html=1;fontSize=12;fontStyle=0;aspect=fixed;shape=mxgraph.aws4.resourceIcon;resIcon=mxgraph.aws4.rds;" vertex="1" parent="1"><mxGeometry y="400" width="50" height="50" as="geometry"/></mxCell><mxCell id="30" value="DBParameterGroupEventSubscription" style="outlineConnect=0;fontColor=#B3B3B3;gradientColor=#4D72F3;gradientDirection=north;fillColor=#3334B9;strokeColor=#ffffff;dashed=0;verticalLabelPosition=bottom;verticalAlign=top;align=center;html=1;fontSize=12;fontStyle=0;aspect=fixed;shape=mxgraph.aws4.resourceIcon;resIcon=mxgraph.aws4.rds;" vertex="1" parent="1"><mxGeometry y="1000" width="50" height="50" as="geometry"/></mxCell><mxCell id="31" value="DBBootStrapLambdaFn" style="outlineConnect=0;fontColor=#B3B3B3;gradientColor=#F78E04;gradientDirection=north;fillColor=#D05C17;strokeColor=#ffffff;dashed=0;verticalLabelPosition=bottom;verticalAlign=top;align=center;html=1;fontSize=12;fontStyle=0;aspect=fixed;shape=mxgraph.aws4.resourceIcon;resIcon=mxgraph.aws4.lambda;" vertex="1" parent="1"><mxGeometry x="250" y="825" width="50" height="50" as="geometry"/></mxCell><mxCell id="32" value="DBBootStrapLambdaFnTrigger" style="outlineConnect=0;fontColor=#B3B3B3;gradientColor=#aaaaaa;gradientDirection=north;fillColor=#aaaaaa;strokeColor=#ffffff;dashed=0;verticalLabelPosition=bottom;verticalAlign=top;align=center;html=1;fontSize=12;fontStyle=0;aspect=fixed;shape=mxgraph.aws4.resourceIcon;resIcon=mxgraph.aws4.lambdaapgbootstrap;" vertex="1" parent="1"><mxGeometry y="900" width="50" height="50" as="geometry"/></mxCell><mxCell id="33" value="iam  aws&#xA;policy/service-role/amazonrdsenhancedmonitoringrole" style="outlineConnect=0;fontColor=#B3B3B3;gradientColor=#aaaaaa;gradientDirection=north;fillColor=#aaaaaa;strokeColor=#ffffff;dashed=0;verticalLabelPosition=bottom;verticalAlign=top;align=center;html=1;fontSize=12;fontStyle=0;aspect=fixed;shape=mxgraph.aws4.resourceIcon;resIcon=mxgraph.aws4.identity_and_access_management;" vertex="1" parent="1"><mxGeometry x="750" y="800" width="50" height="50" as="geometry"/></mxCell><mxCell id="34" value="iam  aws&#xA;policy/service-role/awslambdavpcaccessexecutionrole" style="outlineConnect=0;fontColor=#B3B3B3;gradientColor=#aaaaaa;gradientDirection=north;fillColor=#aaaaaa;strokeColor=#ffffff;dashed=0;verticalLabelPosition=bottom;verticalAlign=top;align=center;html=1;fontSize=12;fontStyle=0;aspect=fixed;shape=mxgraph.aws4.resourceIcon;resIcon=mxgraph.aws4.identity_and_access_management;" vertex="1" parent="1"><mxGeometry x="1000" y="750" width="50" height="50" as="geometry"/></mxCell><mxCell id="35" value="iam  &#xA;root" style="outlineConnect=0;fontColor=#B3B3B3;gradientColor=#aaaaaa;gradientDirection=north;fillColor=#aaaaaa;strokeColor=#ffffff;dashed=0;verticalLabelPosition=bottom;verticalAlign=top;align=center;html=1;fontSize=12;fontStyle=0;aspect=fixed;shape=mxgraph.aws4.resourceIcon;resIcon=mxgraph.aws4.identity_and_access_management;" vertex="1" parent="1"><mxGeometry x="1000" y="650" width="50" height="50" as="geometry"/></mxCell><mxCell id="36" value="iam  aws&#xA;policy/secretsmanagerreadwrite" style="outlineConnect=0;fontColor=#B3B3B3;gradientColor=#aaaaaa;gradientDirection=north;fillColor=#aaaaaa;strokeColor=#ffffff;dashed=0;verticalLabelPosition=bottom;verticalAlign=top;align=center;html=1;fontSize=12;fontStyle=0;aspect=fixed;shape=mxgraph.aws4.resourceIcon;resIcon=mxgraph.aws4.identity_and_access_management;" vertex="1" parent="1"><mxGeometry x="1000" y="550" width="50" height="50" as="geometry"/></mxCell><mxCell id="37" value="iam  aws&#xA;policy/iamfullaccess" style="outlineConnect=0;fontColor=#B3B3B3;gradientColor=#aaaaaa;gradientDirection=north;fillColor=#aaaaaa;strokeColor=#ffffff;dashed=0;verticalLabelPosition=bottom;verticalAlign=top;align=center;html=1;fontSize=12;fontStyle=0;aspect=fixed;shape=mxgraph.aws4.resourceIcon;resIcon=mxgraph.aws4.identity_and_access_management;" vertex="1" parent="1"><mxGeometry x="1000" y="150" width="50" height="50" as="geometry"/></mxCell><mxCell id="38" value="cloudformation  &#xA;stack/serverlessrepo--secretrotationlambdastack/*" style="outlineConnect=0;fontColor=#B3B3B3;gradientColor=#aaaaaa;gradientDirection=north;fillColor=#aaaaaa;strokeColor=#ffffff;dashed=0;verticalLabelPosition=bottom;verticalAlign=top;align=center;html=1;fontSize=12;fontStyle=0;aspect=fixed;shape=mxgraph.aws4.resourceIcon;resIcon=mxgraph.aws4.cloudformation;" vertex="1" parent="1"><mxGeometry x="1000" y="250" width="50" height="50" as="geometry"/></mxCell><mxCell id="39" value="lambda  &#xA;secretsmanager-secretrotationfn-" style="outlineConnect=0;fontColor=#B3B3B3;gradientColor=#aaaaaa;gradientDirection=north;fillColor=#aaaaaa;strokeColor=#ffffff;dashed=0;verticalLabelPosition=bottom;verticalAlign=top;align=center;html=1;fontSize=12;fontStyle=0;aspect=fixed;shape=mxgraph.aws4.resourceIcon;resIcon=mxgraph.aws4.lambda;" vertex="1" parent="1"><mxGeometry x="1000" y="350" width="50" height="50" as="geometry"/></mxCell><mxCell id="40" value="iam  &#xA;role/serverlessrepo*" style="outlineConnect=0;fontColor=#B3B3B3;gradientColor=#aaaaaa;gradientDirection=north;fillColor=#aaaaaa;strokeColor=#ffffff;dashed=0;verticalLabelPosition=bottom;verticalAlign=top;align=center;html=1;fontSize=12;fontStyle=0;aspect=fixed;shape=mxgraph.aws4.resourceIcon;resIcon=mxgraph.aws4.identity_and_access_management;" vertex="1" parent="1"><mxGeometry x="1000" y="450" width="50" height="50" as="geometry"/></mxCell><mxCell id="iam  aws&#xA;policy/service-role/amazonrdsenhancedmonitoringrole|MonitoringIAMRole" value="ManagedPolicyArns" style="edgeStyle=orthogonalEdgeStyle;rounded=1;orthogonalLoop=1;jettySize=auto;html=1;labelBackgroundColor=none;fontColor=#EA6B66;noEdgeStyle=1;orthogonal=1;" edge="1" parent="1" source="2" target="33"><mxGeometry relative="1" as="geometry"><Array as="points"><mxPoint x="562" y="675"/><mxPoint x="738" y="825"/></Array></mxGeometry></mxCell><mxCell id="iam  aws&#xA;policy/service-role/awslambdavpcaccessexecutionrole|DBBootStrapLambdaRole" value="ManagedPolicyArns" style="edgeStyle=orthogonalEdgeStyle;rounded=1;orthogonalLoop=1;jettySize=auto;html=1;labelBackgroundColor=none;fontColor=#EA6B66;noEdgeStyle=1;orthogonal=1;" edge="1" parent="1" source="3" target="34"><mxGeometry relative="1" as="geometry"><Array as="points"><mxPoint x="562" y="1035"/><mxPoint x="650" y="900"/><mxPoint x="900" y="900"/><mxPoint x="988" y="785"/></Array></mxGeometry></mxCell><mxCell id="AuroraMasterSecret|DBBootStrapLambdaRole" value="PolicyDocument" style="edgeStyle=orthogonalEdgeStyle;rounded=1;orthogonalLoop=1;jettySize=auto;html=1;labelBackgroundColor=none;fontColor=#EA6B66;noEdgeStyle=1;orthogonal=1;" edge="1" parent="1" source="3" target="12"><mxGeometry relative="1" as="geometry"><Array as="points"><mxPoint x="562" y="1015"/><mxPoint x="738" y="441.66666666666674"/></Array></mxGeometry></mxCell><mxCell id="ClusterSecurityGroup|ClusterSecurityGroupIngress" value="SourceSecurityGroupId" style="edgeStyle=orthogonalEdgeStyle;rounded=1;orthogonalLoop=1;jettySize=auto;html=1;labelBackgroundColor=none;fontColor=#EA6B66;noEdgeStyle=1;orthogonal=1;" edge="1" parent="1" source="7" target="6"><mxGeometry relative="1" as="geometry"><Array as="points"><mxPoint x="562" y="225"/><mxPoint x="738" y="315"/></Array></mxGeometry></mxCell><mxCell id="iam  &#xA;root|AuroraKMSCMK" value="AWS" style="edgeStyle=orthogonalEdgeStyle;rounded=1;orthogonalLoop=1;jettySize=auto;html=1;labelBackgroundColor=none;fontColor=#EA6B66;noEdgeStyle=1;orthogonal=1;" edge="1" parent="1" source="10" target="35"><mxGeometry relative="1" as="geometry"><Array as="points"><mxPoint x="812" y="525"/><mxPoint x="988" y="685"/></Array></mxGeometry></mxCell><mxCell id="AuroraKMSCMK|AuroraKMSCMKAlias" value="TargetKeyId" style="edgeStyle=orthogonalEdgeStyle;rounded=1;orthogonalLoop=1;jettySize=auto;html=1;labelBackgroundColor=none;fontColor=#EA6B66;noEdgeStyle=1;orthogonal=1;" edge="1" parent="1" source="11" target="10"><mxGeometry relative="1" as="geometry"><Array as="points"><mxPoint x="312" y="390"/><mxPoint x="400" y="400"/><mxPoint x="650" y="400"/><mxPoint x="738" y="510"/></Array></mxGeometry></mxCell><mxCell id="AuroraDBCluster|AuroraKMSCMKAlias" value="AliasName" style="edgeStyle=orthogonalEdgeStyle;rounded=1;orthogonalLoop=1;jettySize=auto;html=1;labelBackgroundColor=none;fontColor=#EA6B66;noEdgeStyle=1;orthogonal=1;" edge="1" parent="1" source="11" target="19"><mxGeometry relative="1" as="geometry"><Array as="points"><mxPoint x="312" y="410"/><mxPoint x="486" y="515"/></Array></mxGeometry></mxCell><mxCell id="AuroraMasterSecret|SecretAuroraClusterAttachment" value="SecretId" style="edgeStyle=orthogonalEdgeStyle;rounded=1;orthogonalLoop=1;jettySize=auto;html=1;labelBackgroundColor=none;fontColor=#EA6B66;noEdgeStyle=1;orthogonal=1;" edge="1" parent="1" source="13" target="12"><mxGeometry relative="1" as="geometry"><Array as="points"><mxPoint x="312" y="290"/><mxPoint x="400" y="350"/><mxPoint x="650" y="350"/><mxPoint x="734" y="421.6666666666667"/></Array></mxGeometry></mxCell><mxCell id="AuroraDBCluster|SecretAuroraClusterAttachment" value="TargetId" style="edgeStyle=orthogonalEdgeStyle;rounded=1;orthogonalLoop=1;jettySize=auto;html=1;labelBackgroundColor=none;fontColor=#EA6B66;noEdgeStyle=1;orthogonal=1;" edge="1" parent="1" source="13" target="19"><mxGeometry relative="1" as="geometry"><Array as="points"><mxPoint x="312" y="310"/><mxPoint x="488" y="508.3333333333333"/></Array></mxGeometry></mxCell><mxCell id="AuroraMasterSecret|AuroraSecretResourcePolicy" value="SecretId" style="edgeStyle=orthogonalEdgeStyle;rounded=1;orthogonalLoop=1;jettySize=auto;html=1;labelBackgroundColor=none;fontColor=#EA6B66;noEdgeStyle=1;orthogonal=1;" edge="1" parent="1" source="14" target="12"><mxGeometry relative="1" as="geometry"><Array as="points"><mxPoint x="562" y="135"/><mxPoint x="738" y="408.3333333333333"/></Array></mxGeometry></mxCell><mxCell id="iam  &#xA;root|AuroraSecretResourcePolicy" value="AWS" style="edgeStyle=orthogonalEdgeStyle;rounded=1;orthogonalLoop=1;jettySize=auto;html=1;labelBackgroundColor=none;fontColor=#EA6B66;noEdgeStyle=1;orthogonal=1;" edge="1" parent="1" source="14" target="35"><mxGeometry relative="1" as="geometry"><Array as="points"><mxPoint x="562" y="115"/><mxPoint x="650" y="250"/><mxPoint x="900" y="250"/><mxPoint x="988" y="665"/></Array></mxGeometry></mxCell><mxCell id="iam  aws&#xA;policy/service-role/awslambdavpcaccessexecutionrole|CreateSecretRotationLambdaRole" value="ManagedPolicyArns" style="edgeStyle=orthogonalEdgeStyle;rounded=1;orthogonalLoop=1;jettySize=auto;html=1;labelBackgroundColor=none;fontColor=#EA6B66;noEdgeStyle=1;orthogonal=1;" edge="1" parent="1" source="15" target="34"><mxGeometry relative="1" as="geometry"><Array as="points"><mxPoint x="812" y="191.66666666666663"/><mxPoint x="988" y="765"/></Array></mxGeometry></mxCell><mxCell id="iam  aws&#xA;policy/secretsmanagerreadwrite|CreateSecretRotationLambdaRole" value="ManagedPolicyArns" style="edgeStyle=orthogonalEdgeStyle;rounded=1;orthogonalLoop=1;jettySize=auto;html=1;labelBackgroundColor=none;fontColor=#EA6B66;noEdgeStyle=1;orthogonal=1;" edge="1" parent="1" source="15" target="36"><mxGeometry relative="1" as="geometry"><Array as="points"><mxPoint x="814" y="184.99999999999997"/><mxPoint x="988" y="575"/></Array></mxGeometry></mxCell><mxCell id="iam  aws&#xA;policy/iamfullaccess|CreateSecretRotationLambdaRole" value="ManagedPolicyArns" style="edgeStyle=orthogonalEdgeStyle;rounded=1;orthogonalLoop=1;jettySize=auto;html=1;labelBackgroundColor=none;fontColor=#EA6B66;noEdgeStyle=1;orthogonal=1;" edge="1" parent="1" source="15" target="37"><mxGeometry relative="1" as="geometry"><Array as="points"><mxPoint x="812" y="158.33333333333334"/><mxPoint x="988" y="175"/></Array></mxGeometry></mxCell><mxCell id="cloudformation  &#xA;stack/serverlessrepo--secretrotationlambdastack/*|CreateSecretRotationLambdaRole" value="PolicyDocument" style="edgeStyle=orthogonalEdgeStyle;rounded=1;orthogonalLoop=1;jettySize=auto;html=1;labelBackgroundColor=none;fontColor=#EA6B66;noEdgeStyle=1;orthogonal=1;" edge="1" parent="1" source="15" target="38"><mxGeometry relative="1" as="geometry"><Array as="points"><mxPoint x="814" y="165"/><mxPoint x="988" y="275"/></Array></mxGeometry></mxCell><mxCell id="lambda  &#xA;secretsmanager-secretrotationfn-|CreateSecretRotationLambdaRole" value="PolicyDocument" style="edgeStyle=orthogonalEdgeStyle;rounded=1;orthogonalLoop=1;jettySize=auto;html=1;labelBackgroundColor=none;fontColor=#EA6B66;noEdgeStyle=1;orthogonal=1;" edge="1" parent="1" source="15" target="39"><mxGeometry relative="1" as="geometry"><Array as="points"><mxPoint x="816" y="171.66666666666666"/><mxPoint x="988" y="375"/></Array></mxGeometry></mxCell><mxCell id="iam  &#xA;role/serverlessrepo*|CreateSecretRotationLambdaRole" value="PolicyDocument" style="edgeStyle=orthogonalEdgeStyle;rounded=1;orthogonalLoop=1;jettySize=auto;html=1;labelBackgroundColor=none;fontColor=#EA6B66;noEdgeStyle=1;orthogonal=1;" edge="1" parent="1" source="15" target="40"><mxGeometry relative="1" as="geometry"><Array as="points"><mxPoint x="816" y="178.33333333333331"/><mxPoint x="988" y="475"/></Array></mxGeometry></mxCell><mxCell id="CreateSecretRotationLambdaRole|CreateSecretRotationLambdaFn" value="Role" style="edgeStyle=orthogonalEdgeStyle;rounded=1;orthogonalLoop=1;jettySize=auto;html=1;labelBackgroundColor=none;fontColor=#EA6B66;noEdgeStyle=1;orthogonal=1;" edge="1" parent="1" source="16" target="15"><mxGeometry relative="1" as="geometry"><Array as="points"><mxPoint x="562" y="25"/><mxPoint x="738" y="175"/></Array></mxGeometry></mxCell><mxCell id="CreateSecretRotationLambdaFn|CreateSecretRotationLambdaFnTrigger" value="ServiceToken" style="edgeStyle=orthogonalEdgeStyle;rounded=1;orthogonalLoop=1;jettySize=auto;html=1;labelBackgroundColor=none;fontColor=#EA6B66;noEdgeStyle=1;orthogonal=1;" edge="1" parent="1" source="17" target="16"><mxGeometry relative="1" as="geometry"><Array as="points"><mxPoint x="312" y="25"/><mxPoint x="488" y="25"/></Array></mxGeometry></mxCell><mxCell id="AuroraMasterSecret|AuroraSecretRotationSchedule" value="SecretId" style="edgeStyle=orthogonalEdgeStyle;rounded=1;orthogonalLoop=1;jettySize=auto;html=1;labelBackgroundColor=none;fontColor=#EA6B66;noEdgeStyle=1;orthogonal=1;" edge="1" parent="1" source="18" target="12"><mxGeometry relative="1" as="geometry"><Array as="points"><mxPoint x="62" y="35"/><mxPoint x="150" y="162.5"/><mxPoint x="400" y="162.5"/><mxPoint x="400" y="300"/><mxPoint x="650" y="300"/><mxPoint x="736" y="415"/></Array></mxGeometry></mxCell><mxCell id="CreateSecretRotationLambdaFnTrigger|AuroraSecretRotationSchedule" value="RotationLambdaARN" style="edgeStyle=orthogonalEdgeStyle;rounded=1;orthogonalLoop=1;jettySize=auto;html=1;labelBackgroundColor=none;fontColor=#EA6B66;noEdgeStyle=1;orthogonal=1;" edge="1" parent="1" source="18" target="17"><mxGeometry relative="1" as="geometry"><Array as="points"><mxPoint x="62" y="15"/><mxPoint x="238" y="25"/></Array></mxGeometry></mxCell><mxCell id="DBSubnetGroup|AuroraDBCluster" value="DBSubnetGroupName" style="edgeStyle=orthogonalEdgeStyle;rounded=1;orthogonalLoop=1;jettySize=auto;html=1;labelBackgroundColor=none;fontColor=#EA6B66;noEdgeStyle=1;orthogonal=1;" edge="1" parent="1" source="19" target="5"><mxGeometry relative="1" as="geometry"><Array as="points"><mxPoint x="562" y="541"/><mxPoint x="738" y="711.6666666666666"/></Array></mxGeometry></mxCell><mxCell id="ClusterSecurityGroup|AuroraDBCluster" value="VpcSecurityGroupIds" style="edgeStyle=orthogonalEdgeStyle;rounded=1;orthogonalLoop=1;jettySize=auto;html=1;labelBackgroundColor=none;fontColor=#EA6B66;noEdgeStyle=1;orthogonal=1;" edge="1" parent="1" source="19" target="6"><mxGeometry relative="1" as="geometry"><Array as="points"><mxPoint x="562" y="509"/><mxPoint x="738" y="335"/></Array></mxGeometry></mxCell><mxCell id="RDSDBClusterParameterGroup|AuroraDBCluster" value="DBClusterParameterGroupName" style="edgeStyle=orthogonalEdgeStyle;rounded=1;orthogonalLoop=1;jettySize=auto;html=1;labelBackgroundColor=none;fontColor=#EA6B66;noEdgeStyle=1;orthogonal=1;" edge="1" parent="1" source="19" target="8"><mxGeometry relative="1" as="geometry"><Array as="points"><mxPoint x="564" y="533"/><mxPoint x="738" y="625"/></Array></mxGeometry></mxCell><mxCell id="AuroraKMSCMK|AuroraDBCluster" value="KmsKeyId" style="edgeStyle=orthogonalEdgeStyle;rounded=1;orthogonalLoop=1;jettySize=auto;html=1;labelBackgroundColor=none;fontColor=#EA6B66;noEdgeStyle=1;orthogonal=1;" edge="1" parent="1" source="19" target="10"><mxGeometry relative="1" as="geometry"><Array as="points"><mxPoint x="566" y="525"/><mxPoint x="736" y="530"/></Array></mxGeometry></mxCell><mxCell id="AuroraMasterSecret|AuroraDBCluster" value="MasterUsername&#xA;MasterUserPassword" style="edgeStyle=orthogonalEdgeStyle;rounded=1;orthogonalLoop=1;jettySize=auto;html=1;labelBackgroundColor=none;fontColor=#EA6B66;noEdgeStyle=1;orthogonal=1;" edge="1" parent="1" source="19" target="12"><mxGeometry relative="1" as="geometry"><Array as="points"><mxPoint x="564" y="517"/><mxPoint x="734" y="428.33333333333337"/></Array></mxGeometry></mxCell><mxCell id="AuroraDBCluster|AuroraDBFirstInstance" value="DBClusterIdentifier" style="edgeStyle=orthogonalEdgeStyle;rounded=1;orthogonalLoop=1;jettySize=auto;html=1;labelBackgroundColor=none;fontColor=#EA6B66;noEdgeStyle=1;orthogonal=1;" edge="1" parent="1" source="20" target="19"><mxGeometry relative="1" as="geometry"><Array as="points"><mxPoint x="314" y="492"/><mxPoint x="484" y="521.6666666666666"/></Array></mxGeometry></mxCell><mxCell id="DBParamGroup|AuroraDBFirstInstance" value="DBParameterGroupName" style="edgeStyle=orthogonalEdgeStyle;rounded=1;orthogonalLoop=1;jettySize=auto;html=1;labelBackgroundColor=none;fontColor=#EA6B66;noEdgeStyle=1;orthogonal=1;" edge="1" parent="1" source="20" target="9"><mxGeometry relative="1" as="geometry"><Array as="points"><mxPoint x="312" y="516"/><mxPoint x="488" y="861.6666666666666"/></Array></mxGeometry></mxCell><mxCell id="DBSubnetGroup|AuroraDBFirstInstance" value="DBSubnetGroupName" style="edgeStyle=orthogonalEdgeStyle;rounded=1;orthogonalLoop=1;jettySize=auto;html=1;labelBackgroundColor=none;fontColor=#EA6B66;noEdgeStyle=1;orthogonal=1;" edge="1" parent="1" source="20" target="5"><mxGeometry relative="1" as="geometry"><Array as="points"><mxPoint x="316" y="500"/><mxPoint x="400" y="600"/><mxPoint x="650" y="600"/><mxPoint x="736" y="725"/></Array></mxGeometry></mxCell><mxCell id="AuroraKMSCMK|AuroraDBFirstInstance" value="PerformanceInsightsKMSKeyId" style="edgeStyle=orthogonalEdgeStyle;rounded=1;orthogonalLoop=1;jettySize=auto;html=1;labelBackgroundColor=none;fontColor=#EA6B66;noEdgeStyle=1;orthogonal=1;" edge="1" parent="1" source="20" target="10"><mxGeometry relative="1" as="geometry"><Array as="points"><mxPoint x="312" y="484"/><mxPoint x="400" y="450"/><mxPoint x="650" y="450"/><mxPoint x="736" y="520"/></Array></mxGeometry></mxCell><mxCell id="MonitoringIAMRole|AuroraDBFirstInstance" value="MonitoringRoleArn" style="edgeStyle=orthogonalEdgeStyle;rounded=1;orthogonalLoop=1;jettySize=auto;html=1;labelBackgroundColor=none;fontColor=#EA6B66;noEdgeStyle=1;orthogonal=1;" edge="1" parent="1" source="20" target="2"><mxGeometry relative="1" as="geometry"><Array as="points"><mxPoint x="314" y="508"/><mxPoint x="488" y="665"/></Array></mxGeometry></mxCell><mxCell id="AuroraDBCluster|AuroraDBSecondInstance" value="DBClusterIdentifier" style="edgeStyle=orthogonalEdgeStyle;rounded=1;orthogonalLoop=1;jettySize=auto;html=1;labelBackgroundColor=none;fontColor=#EA6B66;noEdgeStyle=1;orthogonal=1;" edge="1" parent="1" source="21" target="19"><mxGeometry relative="1" as="geometry"><Array as="points"><mxPoint x="312" y="734"/><mxPoint x="486" y="534.9999999999999"/></Array></mxGeometry></mxCell><mxCell id="DBParamGroup|AuroraDBSecondInstance" value="DBParameterGroupName" style="edgeStyle=orthogonalEdgeStyle;rounded=1;orthogonalLoop=1;jettySize=auto;html=1;labelBackgroundColor=none;fontColor=#EA6B66;noEdgeStyle=1;orthogonal=1;" edge="1" parent="1" source="21" target="9"><mxGeometry relative="1" as="geometry"><Array as="points"><mxPoint x="312" y="766"/><mxPoint x="486" y="875"/></Array></mxGeometry></mxCell><mxCell id="DBSubnetGroup|AuroraDBSecondInstance" value="DBSubnetGroupName" style="edgeStyle=orthogonalEdgeStyle;rounded=1;orthogonalLoop=1;jettySize=auto;html=1;labelBackgroundColor=none;fontColor=#EA6B66;noEdgeStyle=1;orthogonal=1;" edge="1" parent="1" source="21" target="5"><mxGeometry relative="1" as="geometry"><Array as="points"><mxPoint x="314" y="758"/><mxPoint x="400" y="800"/><mxPoint x="650" y="800"/><mxPoint x="738" y="738.3333333333334"/></Array></mxGeometry></mxCell><mxCell id="AuroraKMSCMK|AuroraDBSecondInstance" value="PerformanceInsightsKMSKeyId" style="edgeStyle=orthogonalEdgeStyle;rounded=1;orthogonalLoop=1;jettySize=auto;html=1;labelBackgroundColor=none;fontColor=#EA6B66;noEdgeStyle=1;orthogonal=1;" edge="1" parent="1" source="21" target="10"><mxGeometry relative="1" as="geometry"><Array as="points"><mxPoint x="316" y="750"/><mxPoint x="400" y="750"/><mxPoint x="650" y="750"/><mxPoint x="738" y="540"/></Array></mxGeometry></mxCell><mxCell id="MonitoringIAMRole|AuroraDBSecondInstance" value="MonitoringRoleArn" style="edgeStyle=orthogonalEdgeStyle;rounded=1;orthogonalLoop=1;jettySize=auto;html=1;labelBackgroundColor=none;fontColor=#EA6B66;noEdgeStyle=1;orthogonal=1;" edge="1" parent="1" source="21" target="2"><mxGeometry relative="1" as="geometry"><Array as="points"><mxPoint x="314" y="742"/><mxPoint x="488" y="685"/></Array></mxGeometry></mxCell><mxCell id="DBSNSTopic|CPUUtilizationAlarm1" value="AlarmActions" style="edgeStyle=orthogonalEdgeStyle;rounded=1;orthogonalLoop=1;jettySize=auto;html=1;labelBackgroundColor=none;fontColor=#EA6B66;noEdgeStyle=1;orthogonal=1;" edge="1" parent="1" source="22" target="4"><mxGeometry relative="1" as="geometry"><Array as="points"><mxPoint x="62" y="335"/><mxPoint x="234" y="588.8888888888889"/></Array></mxGeometry></mxCell><mxCell id="AuroraDBFirstInstance|CPUUtilizationAlarm1" value="Value" style="edgeStyle=orthogonalEdgeStyle;rounded=1;orthogonalLoop=1;jettySize=auto;html=1;labelBackgroundColor=none;fontColor=#EA6B66;noEdgeStyle=1;orthogonal=1;" edge="1" parent="1" source="22" target="20"><mxGeometry relative="1" as="geometry"><Array as="points"><mxPoint x="62" y="315"/><mxPoint x="236" y="505"/></Array></mxGeometry></mxCell><mxCell id="DBSNSTopic|CPUUtilizationAlarm2" value="AlarmActions" style="edgeStyle=orthogonalEdgeStyle;rounded=1;orthogonalLoop=1;jettySize=auto;html=1;labelBackgroundColor=none;fontColor=#EA6B66;noEdgeStyle=1;orthogonal=1;" edge="1" parent="1" source="23" target="4"><mxGeometry relative="1" as="geometry"><Array as="points"><mxPoint x="62" y="815"/><mxPoint x="236" y="616.6666666666666"/></Array></mxGeometry></mxCell><mxCell id="AuroraDBSecondInstance|CPUUtilizationAlarm2" value="Value" style="edgeStyle=orthogonalEdgeStyle;rounded=1;orthogonalLoop=1;jettySize=auto;html=1;labelBackgroundColor=none;fontColor=#EA6B66;noEdgeStyle=1;orthogonal=1;" edge="1" parent="1" source="23" target="21"><mxGeometry relative="1" as="geometry"><Array as="points"><mxPoint x="62" y="835"/><mxPoint x="238" y="765"/></Array></mxGeometry></mxCell><mxCell id="DBSNSTopic|MaxUsedTxIDsAlarm1" value="AlarmActions" style="edgeStyle=orthogonalEdgeStyle;rounded=1;orthogonalLoop=1;jettySize=auto;html=1;labelBackgroundColor=none;fontColor=#EA6B66;noEdgeStyle=1;orthogonal=1;" edge="1" parent="1" source="24" target="4"><mxGeometry relative="1" as="geometry"><Array as="points"><mxPoint x="62" y="135"/><mxPoint x="238" y="577.7777777777778"/></Array></mxGeometry></mxCell><mxCell id="AuroraDBFirstInstance|MaxUsedTxIDsAlarm1" value="Value" style="edgeStyle=orthogonalEdgeStyle;rounded=1;orthogonalLoop=1;jettySize=auto;html=1;labelBackgroundColor=none;fontColor=#EA6B66;noEdgeStyle=1;orthogonal=1;" edge="1" parent="1" source="24" target="20"><mxGeometry relative="1" as="geometry"><Array as="points"><mxPoint x="62" y="115"/><mxPoint x="238" y="485"/></Array></mxGeometry></mxCell><mxCell id="DBSNSTopic|MaxUsedTxIDsAlarm2" value="AlarmActions" style="edgeStyle=orthogonalEdgeStyle;rounded=1;orthogonalLoop=1;jettySize=auto;html=1;labelBackgroundColor=none;fontColor=#EA6B66;noEdgeStyle=1;orthogonal=1;" edge="1" parent="1" source="25" target="4"><mxGeometry relative="1" as="geometry"><Array as="points"><mxPoint x="62" y="615"/><mxPoint x="232" y="605.5555555555555"/></Array></mxGeometry></mxCell><mxCell id="AuroraDBSecondInstance|MaxUsedTxIDsAlarm2" value="Value" style="edgeStyle=orthogonalEdgeStyle;rounded=1;orthogonalLoop=1;jettySize=auto;html=1;labelBackgroundColor=none;fontColor=#EA6B66;noEdgeStyle=1;orthogonal=1;" edge="1" parent="1" source="25" target="21"><mxGeometry relative="1" as="geometry"><Array as="points"><mxPoint x="62" y="635"/><mxPoint x="236" y="745"/></Array></mxGeometry></mxCell><mxCell id="DBSNSTopic|FreeLocalStorageAlarm1" value="AlarmActions" style="edgeStyle=orthogonalEdgeStyle;rounded=1;orthogonalLoop=1;jettySize=auto;html=1;labelBackgroundColor=none;fontColor=#EA6B66;noEdgeStyle=1;orthogonal=1;" edge="1" parent="1" source="26" target="4"><mxGeometry relative="1" as="geometry"><Array as="points"><mxPoint x="62" y="235"/><mxPoint x="236" y="583.3333333333334"/></Array></mxGeometry></mxCell><mxCell id="AuroraDBFirstInstance|FreeLocalStorageAlarm1" value="Value" style="edgeStyle=orthogonalEdgeStyle;rounded=1;orthogonalLoop=1;jettySize=auto;html=1;labelBackgroundColor=none;fontColor=#EA6B66;noEdgeStyle=1;orthogonal=1;" edge="1" parent="1" source="26" target="20"><mxGeometry relative="1" as="geometry"><Array as="points"><mxPoint x="62" y="215"/><mxPoint x="236" y="495"/></Array></mxGeometry></mxCell><mxCell id="DBSNSTopic|FreeLocalStorageAlarm2" value="AlarmActions" style="edgeStyle=orthogonalEdgeStyle;rounded=1;orthogonalLoop=1;jettySize=auto;html=1;labelBackgroundColor=none;fontColor=#EA6B66;noEdgeStyle=1;orthogonal=1;" edge="1" parent="1" source="27" target="4"><mxGeometry relative="1" as="geometry"><Array as="points"><mxPoint x="62" y="715"/><mxPoint x="234" y="611.1111111111111"/></Array></mxGeometry></mxCell><mxCell id="AuroraDBSecondInstance|FreeLocalStorageAlarm2" value="Value" style="edgeStyle=orthogonalEdgeStyle;rounded=1;orthogonalLoop=1;jettySize=auto;html=1;labelBackgroundColor=none;fontColor=#EA6B66;noEdgeStyle=1;orthogonal=1;" edge="1" parent="1" source="27" target="21"><mxGeometry relative="1" as="geometry"><Array as="points"><mxPoint x="62" y="735"/><mxPoint x="236" y="755"/></Array></mxGeometry></mxCell><mxCell id="DBSNSTopic|DatabaseClusterEventSubscription" value="SnsTopicArn" style="edgeStyle=orthogonalEdgeStyle;rounded=1;orthogonalLoop=1;jettySize=auto;html=1;labelBackgroundColor=none;fontColor=#EA6B66;noEdgeStyle=1;orthogonal=1;" edge="1" parent="1" source="28" target="4"><mxGeometry relative="1" as="geometry"><Array as="points"><mxPoint x="62" y="515"/><mxPoint x="230" y="600"/></Array></mxGeometry></mxCell><mxCell id="AuroraDBCluster|DatabaseClusterEventSubscription" value="SourceIds" style="edgeStyle=orthogonalEdgeStyle;rounded=1;orthogonalLoop=1;jettySize=auto;html=1;labelBackgroundColor=none;fontColor=#EA6B66;noEdgeStyle=1;orthogonal=1;" edge="1" parent="1" source="28" target="19"><mxGeometry relative="1" as="geometry"><Array as="points"><mxPoint x="62" y="535"/><mxPoint x="150" y="675"/><mxPoint x="400" y="675"/><mxPoint x="484" y="528.3333333333333"/></Array></mxGeometry></mxCell><mxCell id="DBSNSTopic|DatabaseInstanceEventSubscription" value="SnsTopicArn" style="edgeStyle=orthogonalEdgeStyle;rounded=1;orthogonalLoop=1;jettySize=auto;html=1;labelBackgroundColor=none;fontColor=#EA6B66;noEdgeStyle=1;orthogonal=1;" edge="1" parent="1" source="29" target="4"><mxGeometry relative="1" as="geometry"><Array as="points"><mxPoint x="64" y="425"/><mxPoint x="232" y="594.4444444444445"/></Array></mxGeometry></mxCell><mxCell id="AuroraDBFirstInstance|DatabaseInstanceEventSubscription" value="SourceIds" style="edgeStyle=orthogonalEdgeStyle;rounded=1;orthogonalLoop=1;jettySize=auto;html=1;labelBackgroundColor=none;fontColor=#EA6B66;noEdgeStyle=1;orthogonal=1;" edge="1" parent="1" source="29" target="20"><mxGeometry relative="1" as="geometry"><Array as="points"><mxPoint x="62" y="411.6666666666667"/><mxPoint x="238" y="515"/></Array></mxGeometry></mxCell><mxCell id="AuroraDBSecondInstance|DatabaseInstanceEventSubscription" value="SourceIds" style="edgeStyle=orthogonalEdgeStyle;rounded=1;orthogonalLoop=1;jettySize=auto;html=1;labelBackgroundColor=none;fontColor=#EA6B66;noEdgeStyle=1;orthogonal=1;" edge="1" parent="1" source="29" target="21"><mxGeometry relative="1" as="geometry"><Array as="points"><mxPoint x="62" y="438.3333333333333"/><mxPoint x="238" y="735"/></Array></mxGeometry></mxCell><mxCell id="DBSNSTopic|DBParameterGroupEventSubscription" value="SnsTopicArn" style="edgeStyle=orthogonalEdgeStyle;rounded=1;orthogonalLoop=1;jettySize=auto;html=1;labelBackgroundColor=none;fontColor=#EA6B66;noEdgeStyle=1;orthogonal=1;" edge="1" parent="1" source="30" target="4"><mxGeometry relative="1" as="geometry"><Array as="points"><mxPoint x="62" y="1015"/><mxPoint x="238" y="622.2222222222222"/></Array></mxGeometry></mxCell><mxCell id="DBParamGroup|DBParameterGroupEventSubscription" value="SourceIds" style="edgeStyle=orthogonalEdgeStyle;rounded=1;orthogonalLoop=1;jettySize=auto;html=1;labelBackgroundColor=none;fontColor=#EA6B66;noEdgeStyle=1;orthogonal=1;" edge="1" parent="1" source="30" target="9"><mxGeometry relative="1" as="geometry"><Array as="points"><mxPoint x="62" y="1035"/><mxPoint x="150" y="950"/><mxPoint x="400" y="950"/><mxPoint x="488" y="888.3333333333334"/></Array></mxGeometry></mxCell><mxCell id="AuroraMasterSecret|DBBootStrapLambdaFn" value="Variable" style="edgeStyle=orthogonalEdgeStyle;rounded=1;orthogonalLoop=1;jettySize=auto;html=1;labelBackgroundColor=none;fontColor=#EA6B66;noEdgeStyle=1;orthogonal=1;" edge="1" parent="1" source="31" target="12"><mxGeometry relative="1" as="geometry"><Array as="points"><mxPoint x="314" y="850"/><mxPoint x="400" y="950"/><mxPoint x="650" y="950"/><mxPoint x="736" y="435.00000000000006"/></Array></mxGeometry></mxCell><mxCell id="DBBootStrapLambdaRole|DBBootStrapLambdaFn" value="Role" style="edgeStyle=orthogonalEdgeStyle;rounded=1;orthogonalLoop=1;jettySize=auto;html=1;labelBackgroundColor=none;fontColor=#EA6B66;noEdgeStyle=1;orthogonal=1;" edge="1" parent="1" source="31" target="3"><mxGeometry relative="1" as="geometry"><Array as="points"><mxPoint x="312" y="863.3333333333334"/><mxPoint x="488" y="1025"/></Array></mxGeometry></mxCell><mxCell id="AuroraDBCluster|DBBootStrapLambdaFn" value="Variable" style="edgeStyle=orthogonalEdgeStyle;rounded=1;orthogonalLoop=1;jettySize=auto;html=1;labelBackgroundColor=none;fontColor=#EA6B66;noEdgeStyle=1;orthogonal=1;" edge="1" parent="1" source="31" target="19"><mxGeometry relative="1" as="geometry"><Array as="points"><mxPoint x="312" y="836.6666666666666"/><mxPoint x="488" y="541.6666666666665"/></Array></mxGeometry></mxCell><mxCell id="DBBootStrapLambdaFn|DBBootStrapLambdaFnTrigger" value="ServiceToken" style="edgeStyle=orthogonalEdgeStyle;rounded=1;orthogonalLoop=1;jettySize=auto;html=1;labelBackgroundColor=none;fontColor=#EA6B66;noEdgeStyle=1;orthogonal=1;" edge="1" parent="1" source="32" target="31"><mxGeometry relative="1" as="geometry"><Array as="points"><mxPoint x="62" y="925"/><mxPoint x="238" y="850"/></Array></mxGeometry></mxCell></root></mxGraphModel>
            </diagram>
          </mxfile>